<svg width="32" height="32" viewBox="0 0 32 32" fill="none" xmlns="http://www.w3.org/2000/svg">
<g clip-path="url(#clip0_1_1527)">
<g filter="url(#filter0_d_1_1527)">
<path d="M15.4176 8.67959C19.4609 8.35792 22.9987 11.3763 23.3179 15.4198C23.6373 19.4633 20.6167 22.9994 16.573 23.3161C12.5328 23.6325 9.00039 20.6153 8.68145 16.5752C8.36251 12.5352 11.3777 9.00096 15.4176 8.67959Z" fill="#FEFEFE"/>
<path d="M15.4176 8.67959C19.4609 8.35792 22.9987 11.3763 23.3179 15.4198C23.6373 19.4633 20.6167 22.9994 16.573 23.3161C12.5328 23.6325 9.00039 20.6153 8.68145 16.5752C8.36251 12.5352 11.3777 9.00096 15.4176 8.67959Z" fill="url(#paint0_linear_1_1527)"/>
<path d="M25.5429 4.6743C25.8114 4.64134 26.1727 4.65857 26.4271 4.74269C26.7708 4.8553 27.0535 5.10344 27.2096 5.42957C27.3591 5.73726 27.3818 6.09144 27.2725 6.41563C27.09 6.94046 26.67 7.26684 26.1246 7.32813C25.9375 7.35811 25.4366 7.31705 25.3877 7.57065C25.3325 7.85699 25.3808 8.13921 25.2698 8.43751C25.1102 8.86638 24.8541 9.07147 24.4541 9.26021C23.6485 9.54478 22.7558 8.99876 22.6796 8.14644C22.5056 6.20436 23.6814 4.9173 25.5429 4.6743Z" fill="#FEFEFE"/>
<path d="M25.5429 4.6743C25.8114 4.64134 26.1727 4.65857 26.4271 4.74269C26.7708 4.8553 27.0535 5.10344 27.2096 5.42957C27.3591 5.73726 27.3818 6.09144 27.2725 6.41563C27.09 6.94046 26.67 7.26684 26.1246 7.32813C25.9375 7.35811 25.4366 7.31705 25.3877 7.57065C25.3325 7.85699 25.3808 8.13921 25.2698 8.43751C25.1102 8.86638 24.8541 9.07147 24.4541 9.26021C23.6485 9.54478 22.7558 8.99876 22.6796 8.14644C22.5056 6.20436 23.6814 4.9173 25.5429 4.6743Z" fill="url(#paint1_linear_1_1527)"/>
<path d="M7.1551 22.005C7.19681 22.0017 7.2386 21.9992 7.28041 21.9979C8.10087 21.9732 8.67349 22.6217 8.67318 23.4263C8.67249 25.2373 7.4347 26.659 5.55647 26.6686C4.80679 26.6734 4.17264 26.3723 4.02108 25.5759C3.95154 25.2236 4.02668 24.8582 4.2296 24.5619C4.53399 24.1192 5.01151 23.9665 5.52664 23.9898C6.07804 24.0148 5.94435 23.4973 6.00668 23.1169C6.03904 22.9161 6.11489 22.7246 6.22891 22.5561C6.45272 22.2292 6.77695 22.0769 7.1551 22.005Z" fill="#FEFEFE"/>
<path d="M7.1551 22.005C7.19681 22.0017 7.2386 21.9992 7.28041 21.9979C8.10087 21.9732 8.67349 22.6217 8.67318 23.4263C8.67249 25.2373 7.4347 26.659 5.55647 26.6686C4.80679 26.6734 4.17264 26.3723 4.02108 25.5759C3.95154 25.2236 4.02668 24.8582 4.2296 24.5619C4.53399 24.1192 5.01151 23.9665 5.52664 23.9898C6.07804 24.0148 5.94435 23.4973 6.00668 23.1169C6.03904 22.9161 6.11489 22.7246 6.22891 22.5561C6.45272 22.2292 6.77695 22.0769 7.1551 22.005Z" fill="url(#paint2_linear_1_1527)"/>
<path d="M6.49251 4.67115C7.31089 4.61592 7.97237 5.13619 8.01993 5.98444C8.03195 6.19888 8.05235 6.36332 8.10468 6.57015C8.4531 6.73713 8.94224 6.58061 9.36558 6.8619C9.66739 7.06244 9.87539 7.2973 9.96552 7.65746C10.0554 8.00242 10.0013 8.36907 9.81568 8.67338C9.61106 9.01203 9.31295 9.21286 8.93293 9.30596C8.2871 9.46419 7.23908 9.19346 6.70426 8.83705C6.0452 8.41226 5.59281 7.69311 5.42135 6.93086C5.19318 5.91644 5.29601 4.92361 6.49251 4.67115Z" fill="#FEFEFE"/>
<path d="M6.49251 4.67115C7.31089 4.61592 7.97237 5.13619 8.01993 5.98444C8.03195 6.19888 8.05235 6.36332 8.10468 6.57015C8.4531 6.73713 8.94224 6.58061 9.36558 6.8619C9.66739 7.06244 9.87539 7.2973 9.96552 7.65746C10.0554 8.00242 10.0013 8.36907 9.81568 8.67338C9.61106 9.01203 9.31295 9.21286 8.93293 9.30596C8.2871 9.46419 7.23908 9.19346 6.70426 8.83705C6.0452 8.41226 5.59281 7.69311 5.42135 6.93086C5.19318 5.91644 5.29601 4.92361 6.49251 4.67115Z" fill="url(#paint3_linear_1_1527)"/>
<path d="M23.8552 22.0059C25.7162 21.91 27.2998 23.0184 27.3419 24.9807C27.3591 25.7946 26.9835 26.4279 26.1298 26.5573C25.5848 26.6009 25.0975 26.3415 24.8268 25.8684C24.6171 25.5017 24.6687 25.1646 24.6081 24.7648C24.1027 24.6371 23.6735 24.7292 23.2344 24.4313C22.9464 24.2334 22.7493 23.9288 22.6868 23.585C22.5341 22.7663 23.0644 22.1471 23.8552 22.0059Z" fill="#FEFEFE"/>
<path d="M23.8552 22.0059C25.7162 21.91 27.2998 23.0184 27.3419 24.9807C27.3591 25.7946 26.9835 26.4279 26.1298 26.5573C25.5848 26.6009 25.0975 26.3415 24.8268 25.8684C24.6171 25.5017 24.6687 25.1646 24.6081 24.7648C24.1027 24.6371 23.6735 24.7292 23.2344 24.4313C22.9464 24.2334 22.7493 23.9288 22.6868 23.585C22.5341 22.7663 23.0644 22.1471 23.8552 22.0059Z" fill="url(#paint4_linear_1_1527)"/>
<path d="M15.8369 25.339C16.1224 25.3069 16.5137 25.3825 16.7458 25.5613C18.2659 26.7332 18.4695 28.9017 17.0007 30.2325C16.7145 30.4919 16.5502 30.5817 16.1715 30.6609C15.8581 30.6836 15.5806 30.6379 15.3057 30.4754C15.0032 30.2944 14.7856 30 14.7011 29.6577C14.5974 29.2452 14.6931 28.8104 14.9681 28.4857C15.0961 28.3346 15.2443 28.2084 15.3416 28.0346C15.1454 27.6052 14.7741 27.4342 14.6895 26.929C14.549 26.0909 15.0299 25.4946 15.8369 25.339Z" fill="#FEFEFE"/>
<path d="M15.8369 25.339C16.1224 25.3069 16.5137 25.3825 16.7458 25.5613C18.2659 26.7332 18.4695 28.9017 17.0007 30.2325C16.7145 30.4919 16.5502 30.5817 16.1715 30.6609C15.8581 30.6836 15.5806 30.6379 15.3057 30.4754C15.0032 30.2944 14.7856 30 14.7011 29.6577C14.5974 29.2452 14.6931 28.8104 14.9681 28.4857C15.0961 28.3346 15.2443 28.2084 15.3416 28.0346C15.1454 27.6052 14.7741 27.4342 14.6895 26.929C14.549 26.0909 15.0299 25.4946 15.8369 25.339Z" fill="url(#paint5_linear_1_1527)"/>
<path d="M15.8247 1.33829C16.1044 1.31443 16.3422 1.35103 16.5966 1.47495C16.914 1.62914 17.1563 1.90402 17.2694 2.23817C17.4155 2.65988 17.3352 3.12703 17.0566 3.47576C16.9097 3.65949 16.7659 3.78221 16.6631 3.99559L16.6501 4.02292C16.6562 4.03411 16.6624 4.0453 16.6685 4.05651L16.6789 4.07405C16.8892 4.43507 17.1858 4.4754 17.3081 5.05142C17.3851 5.40167 17.316 5.76819 17.1168 6.06638C16.8841 6.41669 16.574 6.57934 16.1732 6.66184C15.8598 6.68386 15.4964 6.62586 15.2388 6.43128C13.7422 5.30063 13.5986 3.29359 14.8465 1.91067C15.1434 1.58166 15.3892 1.42382 15.8247 1.33829Z" fill="#FEFEFE"/>
<path d="M15.8247 1.33829C16.1044 1.31443 16.3422 1.35103 16.5966 1.47495C16.914 1.62914 17.1563 1.90402 17.2694 2.23817C17.4155 2.65988 17.3352 3.12703 17.0566 3.47576C16.9097 3.65949 16.7659 3.78221 16.6631 3.99559L16.6501 4.02292C16.6562 4.03411 16.6624 4.0453 16.6685 4.05651L16.6789 4.07405C16.8892 4.43507 17.1858 4.4754 17.3081 5.05142C17.3851 5.40167 17.316 5.76819 17.1168 6.06638C16.8841 6.41669 16.574 6.57934 16.1732 6.66184C15.8598 6.68386 15.4964 6.62586 15.2388 6.43128C13.7422 5.30063 13.5986 3.29359 14.8465 1.91067C15.1434 1.58166 15.3892 1.42382 15.8247 1.33829Z" fill="url(#paint6_linear_1_1527)"/>
<path d="M27.6818 14.0071C28.7429 13.8536 30.6 14.7298 30.6693 15.9219C30.6923 16.2769 30.57 16.626 30.3308 16.8894C30.0898 17.1575 29.751 17.3174 29.391 17.333C28.8954 17.3522 28.5839 17.1341 28.2416 16.8186C28.1521 16.7426 28.0991 16.7095 27.9989 16.6471C27.5702 16.8377 27.5102 17.2153 26.9006 17.3127C25.6533 17.5118 24.8758 16.135 25.6185 15.161C26.1296 14.4905 26.8652 14.1339 27.6818 14.0071Z" fill="#FEFEFE"/>
<path d="M27.6818 14.0071C28.7429 13.8536 30.6 14.7298 30.6693 15.9219C30.6923 16.2769 30.57 16.626 30.3308 16.8894C30.0898 17.1575 29.751 17.3174 29.391 17.333C28.8954 17.3522 28.5839 17.1341 28.2416 16.8186C28.1521 16.7426 28.0991 16.7095 27.9989 16.6471C27.5702 16.8377 27.5102 17.2153 26.9006 17.3127C25.6533 17.5118 24.8758 16.135 25.6185 15.161C26.1296 14.4905 26.8652 14.1339 27.6818 14.0071Z" fill="url(#paint7_linear_1_1527)"/>
<path d="M2.4916 14.0049C2.97639 13.9729 3.29672 14.0912 3.64933 14.4305C3.75526 14.5325 3.84864 14.6218 3.98401 14.6842C4.20654 14.587 4.34441 14.4056 4.54201 14.2585C4.82629 14.0465 5.18414 13.9583 5.53435 14.0139C5.89706 14.0696 6.2217 14.2699 6.43406 14.5692C6.63439 14.8591 6.71249 15.2163 6.65147 15.5633C6.55081 16.1275 6.09883 16.4952 5.65626 16.8046C5.30737 17.0315 4.92012 17.1932 4.51343 17.2817C3.82106 17.4335 2.99218 17.2563 2.40549 16.8672C1.96055 16.5721 1.47092 16.1472 1.35875 15.6045C1.2853 15.2447 1.35868 14.8704 1.56258 14.5649C1.78754 14.2331 2.11001 14.0804 2.4916 14.0049Z" fill="#FEFEFE"/>
<path d="M2.4916 14.0049C2.97639 13.9729 3.29672 14.0912 3.64933 14.4305C3.75526 14.5325 3.84864 14.6218 3.98401 14.6842C4.20654 14.587 4.34441 14.4056 4.54201 14.2585C4.82629 14.0465 5.18414 13.9583 5.53435 14.0139C5.89706 14.0696 6.2217 14.2699 6.43406 14.5692C6.63439 14.8591 6.71249 15.2163 6.65147 15.5633C6.55081 16.1275 6.09883 16.4952 5.65626 16.8046C5.30737 17.0315 4.92012 17.1932 4.51343 17.2817C3.82106 17.4335 2.99218 17.2563 2.40549 16.8672C1.96055 16.5721 1.47092 16.1472 1.35875 15.6045C1.2853 15.2447 1.35868 14.8704 1.56258 14.5649C1.78754 14.2331 2.11001 14.0804 2.4916 14.0049Z" fill="url(#paint8_linear_1_1527)"/>
</g>
</g>
<defs>
<filter id="filter0_d_1_1527" x="-2.66907" y="1.33142" width="37.3411" height="37.3348" filterUnits="userSpaceOnUse" color-interpolation-filters="sRGB">
<feFlood flood-opacity="0" result="BackgroundImageFix"/>
<feColorMatrix in="SourceAlpha" type="matrix" values="0 0 0 0 0 0 0 0 0 0 0 0 0 0 0 0 0 0 127 0" result="hardAlpha"/>
<feOffset dy="4"/>
<feGaussianBlur stdDeviation="2"/>
<feColorMatrix type="matrix" values="0 0 0 0 0 0 0 0 0 0 0 0 0 0 0 0 0 0 0.5 0"/>
<feBlend mode="normal" in2="BackgroundImageFix" result="effect1_dropShadow_1_1527"/>
<feBlend mode="normal" in="SourceGraphic" in2="effect1_dropShadow_1_1527" result="shape"/>
</filter>
<linearGradient id="paint0_linear_1_1527" x1="16.0015" y1="1.33142" x2="16.0015" y2="30.6663" gradientUnits="userSpaceOnUse">
<stop stop-color="#FF7A7A"/>
<stop offset="1" stop-color="#FF9F3E"/>
</linearGradient>
<linearGradient id="paint1_linear_1_1527" x1="16.0015" y1="1.33142" x2="16.0015" y2="30.6663" gradientUnits="userSpaceOnUse">
<stop stop-color="#FF7A7A"/>
<stop offset="1" stop-color="#FF9F3E"/>
</linearGradient>
<linearGradient id="paint2_linear_1_1527" x1="16.0015" y1="1.33142" x2="16.0015" y2="30.6663" gradientUnits="userSpaceOnUse">
<stop stop-color="#FF7A7A"/>
<stop offset="1" stop-color="#FF9F3E"/>
</linearGradient>
<linearGradient id="paint3_linear_1_1527" x1="16.0015" y1="1.33142" x2="16.0015" y2="30.6663" gradientUnits="userSpaceOnUse">
<stop stop-color="#FF7A7A"/>
<stop offset="1" stop-color="#FF9F3E"/>
</linearGradient>
<linearGradient id="paint4_linear_1_1527" x1="16.0015" y1="1.33142" x2="16.0015" y2="30.6663" gradientUnits="userSpaceOnUse">
<stop stop-color="#FF7A7A"/>
<stop offset="1" stop-color="#FF9F3E"/>
</linearGradient>
<linearGradient id="paint5_linear_1_1527" x1="16.0015" y1="1.33142" x2="16.0015" y2="30.6663" gradientUnits="userSpaceOnUse">
<stop stop-color="#FF7A7A"/>
<stop offset="1" stop-color="#FF9F3E"/>
</linearGradient>
<linearGradient id="paint6_linear_1_1527" x1="16.0015" y1="1.33142" x2="16.0015" y2="30.6663" gradientUnits="userSpaceOnUse">
<stop stop-color="#FF7A7A"/>
<stop offset="1" stop-color="#FF9F3E"/>
</linearGradient>
<linearGradient id="paint7_linear_1_1527" x1="16.0015" y1="1.33142" x2="16.0015" y2="30.6663" gradientUnits="userSpaceOnUse">
<stop stop-color="#FF7A7A"/>
<stop offset="1" stop-color="#FF9F3E"/>
</linearGradient>
<linearGradient id="paint8_linear_1_1527" x1="16.0015" y1="1.33142" x2="16.0015" y2="30.6663" gradientUnits="userSpaceOnUse">
<stop stop-color="#FF7A7A"/>
<stop offset="1" stop-color="#FF9F3E"/>
</linearGradient>
<clipPath id="clip0_1_1527">
<rect width="32" height="32" fill="white"/>
</clipPath>
</defs>
</svg>
