<svg preserveAspectRatio="none" width="100%" height="100%" overflow="visible" style="display: block;" viewBox="0 0 48 48" fill="none" xmlns="http://www.w3.org/2000/svg">
<g id="Frame 69">
<g id="Ellipse 91">
<circle cx="24" cy="24" r="24" fill="var(--fill-0, black)" fill-opacity="0.25"/>
<circle cx="24" cy="24" r="23.5" stroke="var(--stroke-0, white)" stroke-opacity="0.1"/>
</g>
<g id="image 369 [Vectorized]">
<path id="Vector" d="M23.1558 14.0068C23.5988 13.9806 24.3063 13.991 24.7619 14.004C25.8823 14.0464 27.0011 14.1246 28.1164 14.2385C28.7297 14.3009 29.403 14.316 29.99 14.5115C30.7086 14.7508 31.2675 15.2651 31.6403 15.9149C32.0108 16.5608 32.02 17.2387 32.0056 17.9618C31.9995 18.2682 31.8995 18.5321 31.6723 18.7424C31.4778 18.9216 31.2192 19.0145 30.9552 19C30.7458 18.9887 30.5448 18.9143 30.3786 18.7866C29.6319 18.2053 30.2992 17.2857 29.7358 16.6863C29.5987 16.5404 29.4784 16.4447 29.2805 16.3998C28.9309 16.3205 28.5128 16.2926 28.155 16.2576C27.1056 16.1551 26.0539 16.0781 25.0008 16.0265C25.0205 17.2235 25.005 18.4552 25.005 19.6564L25.0049 26.4337L25.0048 30.1892L25.0063 31.3205C25.007 31.5197 25.0162 31.8083 25.0005 31.9989L26.3134 31.9956C26.5948 31.9952 26.921 31.9744 27.1955 32.0239C27.9716 32.1639 28.275 33.1331 27.7231 33.6944C27.5829 33.8356 27.4046 33.9333 27.21 33.9755C27.0173 34.0177 26.5692 34.0023 26.3523 34.0022L24.9141 34.0016L22.1988 34.002L21.4267 34.0028C20.9935 34.0028 20.6248 34.0395 20.291 33.7086C20.1017 33.5186 19.9959 33.2608 19.9973 32.9925C19.9962 32.7322 20.0998 32.4733 20.2834 32.288C20.6408 31.927 21.166 31.995 21.6314 31.9953L23.0003 31.9964C22.9741 29.8063 22.9965 27.5682 22.9965 25.3747L22.9994 16.0212C22.4667 16.0773 21.8208 16.0951 21.2699 16.1368C20.7078 16.1804 20.1463 16.231 19.5855 16.2887C19.1207 16.3358 18.623 16.3119 18.2837 16.6645C17.7312 17.2387 18.3043 18.0372 17.7611 18.6501C17.1342 19.3576 16.011 18.9307 15.9984 17.9939C15.9604 16.9635 16.0437 16.1661 16.7409 15.3613C17.6233 14.3428 18.68 14.3536 19.9122 14.2385C20.991 14.1297 22.0726 14.0525 23.1558 14.0068Z" fill="var(--fill-0, #FEFEFE)"/>
</g>
</g>
</svg>
